<?xml version="1.0" standalone="no"?>
<!DOCTYPE svg PUBLIC "-//W3C//DTD SVG 20010904//EN"
 "http://www.w3.org/TR/2001/REC-SVG-20010904/DTD/svg10.dtd">
<svg version="1.0" xmlns="http://www.w3.org/2000/svg"
 width="700.000000pt" height="700.000000pt" viewBox="0 0 700.000000 700.000000"
 preserveAspectRatio="xMidYMid meet">
<metadata>
Created by potrace 1.14, written by Peter Selinger 2001-2017
</metadata>
<g transform="translate(0.000000,700.000000) scale(0.100000,-0.100000)"
fill="#000000" stroke="none">
<path d="M3278 6995 c-1 -1 -42 -5 -89 -9 -47 -4 -95 -8 -106 -10 -11 -3 -44
-7 -74 -11 -313 -38 -709 -158 -1024 -311 -180 -87 -448 -247 -555 -331 -8 -6
-51 -40 -95 -74 -353 -275 -673 -651 -897 -1054 -49 -87 -148 -289 -148 -301
0 -2 -9 -23 -20 -47 -57 -123 -157 -435 -186 -582 -2 -11 -10 -54 -19 -95 -29
-147 -36 -200 -52 -370 -15 -164 -8 -592 12 -711 2 -13 6 -46 9 -74 9 -78 23
-156 51 -285 23 -107 88 -333 114 -395 5 -11 25 -65 46 -120 63 -166 249 -531
312 -610 4 -6 34 -49 65 -95 171 -256 432 -534 708 -755 92 -74 370 -265 386
-265 4 0 15 -6 23 -14 46 -40 413 -212 571 -268 83 -29 268 -87 293 -92 12 -2
60 -13 107 -24 109 -27 200 -44 299 -58 25 -3 57 -8 71 -10 163 -25 682 -25
842 1 13 2 46 7 73 10 71 10 87 13 115 18 14 3 43 8 65 12 325 59 741 212
1039 384 49 28 91 51 93 51 9 0 267 179 343 239 158 123 331 285 460 430 36
41 70 79 76 85 65 68 263 353 352 508 47 80 182 351 182 364 0 3 8 24 19 47
53 118 147 417 177 562 17 81 54 301 59 350 4 33 9 71 11 85 9 47 11 525 3
605 -15 165 -21 220 -24 225 -2 3 -6 30 -10 60 -9 75 -69 337 -99 435 -189
622 -521 1151 -997 1590 -347 320 -788 580 -1244 733 -168 57 -420 119 -555
137 -19 3 -46 7 -60 10 -13 2 -52 7 -86 11 -33 3 -74 8 -90 10 -32 5 -540 14
-546 9z m700 -1359 c110 -10 136 -14 272 -47 210 -52 394 -133 578 -257 54
-35 99 -67 102 -71 3 -3 23 -19 44 -35 64 -48 217 -206 287 -297 282 -365 421
-833 376 -1269 -28 -270 -120 -534 -260 -751 -87 -134 -235 -298 -367 -405
-19 -16 -44 -37 -54 -46 -41 -37 -235 -168 -329 -222 -117 -67 -271 -141 -387
-186 -47 -17 -105 -40 -130 -50 -87 -35 -421 -124 -550 -146 -14 -3 -47 -9
-75 -14 -51 -9 -162 -25 -250 -36 -27 -3 -61 -7 -75 -9 -135 -20 -752 -28
-940 -12 -165 14 -194 17 -225 21 -16 2 -55 7 -85 11 -80 9 -86 12 -88 42 -1
16 -4 39 -7 53 -3 14 -8 48 -10 75 -3 28 -7 68 -10 90 -15 145 -20 267 -20
550 0 287 4 382 21 550 7 72 31 246 40 289 2 11 7 37 9 56 7 46 31 152 61 275
203 808 653 1440 1209 1695 78 36 252 96 304 105 19 3 37 8 40 10 4 2 27 6 51
10 25 3 52 8 60 10 8 2 47 7 85 11 39 3 71 7 72 8 4 3 186 -2 251 -8z"/>
<path d="M3890 4931 c0 -7 -140 -299 -292 -607 l-40 -81 -151 -73 c-84 -41
-242 -117 -352 -171 l-200 -97 200 -97 c110 -54 268 -130 352 -171 l152 -73
59 -123 c33 -68 110 -226 172 -353 l113 -230 45 95 c25 52 103 212 173 355
l128 260 68 32 c37 17 189 90 337 162 148 72 272 131 277 131 19 0 7 16 -23
32 -37 19 -509 248 -604 293 l-60 28 -56 116 c-254 528 -298 613 -298 572z"/>
</g>
</svg>
